<?xml version="1.0" encoding="UTF-8" standalone="no"?>
<!-- Created with Inkscape (http://www.inkscape.org/) -->

<svg
   width="240"
   height="240"
   id="svg5"
   sodipodi:docname="baidu.svg"
   version="1.1"
   inkscape:version="1.2.1 (9c6d41e410, 2022-07-14, custom)"
   xml:space="preserve"
   xmlns:inkscape="http://www.inkscape.org/namespaces/inkscape"
   xmlns:sodipodi="http://sodipodi.sourceforge.net/DTD/sodipodi-0.dtd"
   xmlns:xlink="http://www.w3.org/1999/xlink"
   xmlns="http://www.w3.org/2000/svg"
   xmlns:svg="http://www.w3.org/2000/svg"><sodipodi:namedview
     id="namedview7"
     pagecolor="#ffffff"
     bordercolor="#111111"
     borderopacity="1"
     inkscape:pageshadow="0"
     inkscape:pageopacity="0"
     inkscape:pagecheckerboard="1"
     inkscape:document-units="px"
     showgrid="true"
     units="px"
     width="512px"
     inkscape:zoom="1.9776937"
     inkscape:cx="213.12704"
     inkscape:cy="178.23791"
     inkscape:window-width="1920"
     inkscape:window-height="1031"
     inkscape:window-x="0"
     inkscape:window-y="0"
     inkscape:window-maximized="1"
     inkscape:current-layer="layer1"
     inkscape:showpageshadow="false"
     showborder="true"
     inkscape:deskcolor="#d1d1d1" /><defs
     id="defs2"><linearGradient
       inkscape:collect="always"
       id="linearGradient1743"><stop
         style="stop-color:#36d9ff;stop-opacity:1;"
         offset="0"
         id="stop1739" /><stop
         style="stop-color:#008dff;stop-opacity:1;"
         offset="1"
         id="stop1741" /></linearGradient><linearGradient
       inkscape:collect="always"
       id="linearGradient1735"><stop
         style="stop-color:#ff8d99;stop-opacity:1;"
         offset="0"
         id="stop1731" /><stop
         style="stop-color:#ff557e;stop-opacity:1;"
         offset="1"
         id="stop1733" /></linearGradient><inkscape:path-effect
       effect="bspline"
       id="path-effect1133"
       is_visible="true"
       lpeversion="1"
       weight="33.333333"
       steps="2"
       helper_size="0"
       apply_no_weight="true"
       apply_with_weight="true"
       only_selected="false" /><inkscape:path-effect
       effect="bspline"
       id="path-effect857"
       is_visible="true"
       lpeversion="1"
       weight="33.333333"
       steps="2"
       helper_size="0"
       apply_no_weight="true"
       apply_with_weight="true"
       only_selected="false" /><linearGradient
       inkscape:collect="always"
       xlink:href="#linearGradient1735"
       id="linearGradient1737"
       x1="161.67734"
       y1="200.72083"
       x2="203.09038"
       y2="125.4471"
       gradientUnits="userSpaceOnUse"
       gradientTransform="matrix(1.3634133,0,0,1.3634133,-47.401474,-43.85893)" /><linearGradient
       inkscape:collect="always"
       xlink:href="#linearGradient1743"
       id="linearGradient1745"
       x1="158.46169"
       y1="167.01718"
       x2="70.155136"
       y2="49.478268"
       gradientUnits="userSpaceOnUse"
       gradientTransform="matrix(1.3634133,0,0,1.3634133,-47.401474,-43.85893)" /></defs><g
     inkscape:label="图层 1"
     inkscape:groupmode="layer"
     id="layer1"><path
       style="fill:url(#linearGradient1745);fill-opacity:1;stroke:none;stroke-width:1.36341px;stroke-linecap:butt;stroke-linejoin:miter;stroke-opacity:1"
       d="M 69.420262,229.80651 53.289918,188.56692 c 0,0 -41.209628,-6.86102 -51.9919418,-74.38528 C -7.5917744,58.509559 29.565747,15.412085 100.98156,10.628593 175.42734,5.6421527 214.29147,44.471557 216.52027,78.118139 221.0751,146.87915 212.5617,166.21526 178.4421,180.01172 c -62.13752,25.12568 -76.22239,17.26899 -76.22239,17.26899 z"
       id="path355"
       sodipodi:nodetypes="ccsssscc" /><path
       style="fill:#ffffff;fill-opacity:1;stroke:none;stroke-width:1.36341px;stroke-linecap:butt;stroke-linejoin:miter;stroke-opacity:1"
       d="m 46.448812,87.137844 27.04308,-0.467374 -0.338322,55.00835 -10.022197,0.0243 0.356856,-45.61119 -17.17417,0.479458 z"
       id="path359"
       sodipodi:nodetypes="ccccccc" /><path
       style="fill:#ffffff;fill-opacity:1;stroke:none;stroke-width:1.36341px;stroke-linecap:butt;stroke-linejoin:miter;stroke-opacity:1"
       d="m 100.86097,50.565533 -0.10853,9.792507 32.38319,-0.594017 -25.06958,26.647507 H 88.173717 c 0,0 -1.892492,11.647762 0.782595,11.647762 2.675085,0 27.251808,-1.637282 27.251808,-1.637282 l 10.20568,-10.01048 14.63185,10.295147 24.54776,-1.247482 0.76807,-9.047665 h -21.39982 l -9.7908,-10.124492 13.90733,-15.781369 0.42657,-9.11705 z"
       id="path361"
       sodipodi:nodetypes="cccccscccccccccc" /><path
       style="fill:#ffffff;fill-opacity:1;stroke:none;stroke-width:1.36341px;stroke-linecap:butt;stroke-linejoin:miter;stroke-opacity:1"
       d="m 120.72294,101.70029 -0.25815,7.37478 -25.71468,0.48594 -0.551269,10.18966 h 24.556449 l -0.3106,13.23918 -25.866947,0.83807 -1.685602,8.8987 h 27.734529 l -0.29961,16.29316 13.38231,0.57262 0.16542,-15.29436 29.57344,-1.57142 -0.99861,-9.87477 -28.32988,-0.12584 -0.19273,-12.97534 h 25.19668 l 0.35315,-10.00554 -25.66984,-1.22992 -0.68939,-6.47947 z"
       id="path363"
       sodipodi:nodetypes="ccccccccccccccccccccc" /><path
       style="fill:url(#linearGradient1737);fill-opacity:1;stroke:none;stroke-width:1.36341px;stroke-linecap:butt;stroke-linejoin:miter;stroke-opacity:1"
       d="m 136.91438,205.75197 c 0,0 25.03901,9.31581 35.58297,9.31581 10.54396,0 5.6168,3.84411 17.76628,12.13161 12.14949,8.28749 15.27217,-9.94914 17.13585,-16.70629 1.86366,-6.75714 18.54779,-4.57512 28.38351,-28.92409 12.32468,-30.51053 -6.28834,-54.3917 -6.28834,-54.3917 0,0 -13.95954,39.49944 -30.26047,55.13108 -16.30092,15.63166 -62.3198,23.44358 -62.3198,23.44358 z"
       id="path365"
       sodipodi:nodetypes="csssscsc" /><circle
       style="fill:#ffffff;fill-opacity:1;stroke:none;stroke-width:20.4512;stroke-linecap:round;stroke-linejoin:round"
       id="path466"
       cx="69.420258"
       cy="57.105335"
       r="8.3112879" /></g></svg>
