<?xml version="1.0" encoding="UTF-8" standalone="no"?>
<!-- Created with Inkscape (http://www.inkscape.org/) -->

<svg
   width="240"
   height="240"
   id="svg5"
   sodipodi:docname="bing.svg"
   version="1.1"
   inkscape:version="1.2.1 (9c6d41e410, 2022-07-14, custom)"
   xmlns:inkscape="http://www.inkscape.org/namespaces/inkscape"
   xmlns:sodipodi="http://sodipodi.sourceforge.net/DTD/sodipodi-0.dtd"
   xmlns="http://www.w3.org/2000/svg"
   xmlns:svg="http://www.w3.org/2000/svg">
  <sodipodi:namedview
     id="namedview7"
     pagecolor="#ffffff"
     bordercolor="#111111"
     borderopacity="1"
     inkscape:pageshadow="0"
     inkscape:pageopacity="0"
     inkscape:pagecheckerboard="1"
     inkscape:document-units="px"
     showgrid="true"
     units="px"
     width="512px"
     inkscape:zoom="1.9776937"
     inkscape:cx="71.547985"
     inkscape:cy="159.02361"
     inkscape:window-width="1920"
     inkscape:window-height="1031"
     inkscape:window-x="0"
     inkscape:window-y="0"
     inkscape:window-maximized="1"
     inkscape:current-layer="layer1"
     inkscape:showpageshadow="false"
     showborder="true"
     inkscape:deskcolor="#d1d1d1" />
  <defs
     id="defs2">
    <inkscape:path-effect
       effect="bspline"
       id="path-effect1133"
       is_visible="true"
       lpeversion="1"
       weight="33.333333"
       steps="2"
       helper_size="0"
       apply_no_weight="true"
       apply_with_weight="true"
       only_selected="false" />
    <inkscape:path-effect
       effect="bspline"
       id="path-effect857"
       is_visible="true"
       lpeversion="1"
       weight="33.333333"
       steps="2"
       helper_size="0"
       apply_no_weight="true"
       apply_with_weight="true"
       only_selected="false" />
  </defs>
  <g
     inkscape:label="图层 1"
     inkscape:groupmode="layer"
     id="layer1">
    <path
       id="path134"
       style="display:block;fill:#177f17;stroke-width:1.37334"
       d="m 151.18475,6.225e-6 -4.03419,0.515003175 -1.37334,4.1200254 3.43336,2.0600127 3.43335,3.4333545 c 0.24988,1.262185 0.49241,2.487254 0.73496,3.712315 0.0124,1.422692 0.0251,2.80355 0.0375,4.1844 -0.18057,1.366151 -0.35583,2.692128 -0.5311,4.018098 -0.54895,1.08526 -1.08182,2.138607 -1.61469,3.191947 l -3.54601,1.174851 -4.35071,0.112655 -4.53847,-0.391616 c -1.37526,-0.304602 -2.71009,-0.600247 -4.04491,-0.89589 l -3.94836,-2.746684 c -1.47378,-1.387072 -1.47378,-1.387078 -2.91835,-2.746683 l -4.46336,-0.686671 -3.77669,0.686671 c -0.49612,0.817135 -0.97766,1.610246 -1.45918,2.403348 0.0291,1.050603 0.0575,2.070315 0.0858,3.090019 0.49611,0.904686 0.97764,1.782772 1.45917,2.66085 0.90469,0.963053 1.78276,1.897789 2.66085,2.832517 l 3.09002,3.77669 c 1.05114,0.942774 1.05117,0.94278 2.08146,1.866886 1.04332,0.415866 2.05595,0.8195 3.06857,1.223133 1.7729,-0.196989 3.49367,-0.388183 5.21442,-0.579379 l 2.87274,-0.415757 c 0.98608,-0.128248 1.94249,-0.253726 2.89958,-0.378206 1.8495,-0.08938 3.64461,-0.176125 5.43972,-0.262866 l 4.17367,1.636208 c 0.31052,0.899443 0.61328,1.771767 0.91467,2.644756 0.11632,1.159813 0.22776,2.286195 0.34065,3.411896 -0.0124,1.27803 -0.0251,2.517472 -0.0375,3.757913 -0.12209,1.361248 -0.24091,2.683476 -0.35943,4.004687 -0.18319,1.378575 -0.36134,2.717619 -0.53914,4.05565 -0.26369,1.346428 -0.51927,2.652258 -0.77519,3.959087 -0.34951,1.285442 -0.68808,2.534422 -1.02733,3.782055 -0.42936,1.096658 -0.84673,2.159729 -1.26342,3.224134 -1.08525,1.21476 -2.1386,2.393733 -3.19194,3.572834 l -3.7606,2.178035 c -1.38986,0.638389 -2.73885,1.258004 -4.08783,1.877616 l -4.06639,1.984907 -3.55137,3.100748 -3.2295,3.50846 c -1.01777,1.200174 -2.00561,2.365051 -2.99346,3.529917 -0.87914,1.222068 -1.73244,2.408182 -2.58574,3.594293 -0.67488,1.222052 -1.32989,2.40818 -1.98491,3.594297 -0.77481,1.782611 -0.77481,1.782611 -1.53428,3.529914 -0.39762,1.169167 -0.78356,2.303946 -1.16948,3.438723 -0.2736,1.07796 -0.53915,2.12422 -0.8047,3.17048 -0.20428,1.69265 -0.40257,3.33551 -0.60084,4.97837 0.20429,1.57591 0.40256,3.10547 0.60084,4.63503 0.23712,0.96488 0.46725,1.90137 0.6974,2.83788 0.31738,0.99042 0.6254,1.9517 0.93344,2.91299 0.39946,0.93933 0.78715,1.85105 1.17486,2.76277 0.44687,0.84085 0.8806,1.65697 1.31433,2.47309 l 2.74668,3.43336 4.12003,2.06001 c 1.2111,0.14226 2.3866,0.28035 3.5621,0.41844 1.35703,0.0328 2.67416,0.0647 3.99128,0.0966 1.9289,-0.0272 1.9289,-0.0272 3.8196,-0.0537 1.26948,-0.15686 2.50163,-0.30911 3.73378,-0.46136 1.19469,-0.39033 2.35426,-0.76918 3.51381,-1.14803 1.13999,-0.54354 2.24645,-1.0711 3.35289,-1.59865 1.08162,-0.67122 2.13142,-1.32271 3.18123,-1.97418 1.04878,-0.72959 2.06671,-1.43773 3.08465,-2.14585 1.05243,-0.72959 2.07391,-1.43772 3.09539,-2.14585 1.01959,-0.67122 2.00919,-1.3227 2.99881,-1.97417 1.00683,-0.59462 1.98405,-1.17174 2.96127,-1.74887 0.86091,-0.33926 1.6965,-0.66853 2.5321,-0.99782 0.90469,0.64204 1.78276,1.26519 2.66085,1.88835 0.96305,0.75877 1.89778,1.49522 2.83252,2.23168 l 3.69085,0.34333 3.17585,-0.34326 1.37335,-1.37335 1.03,-3.26168 0.34334,-3.60502 -1.88835,-2.06002 -2.23168,-2.06001 c -0.40857,-1.13816 -0.80512,-2.24285 -1.20167,-3.34752 -0.0584,-1.19652 -0.11495,-2.35785 -0.17167,-3.51919 0.57821,-0.79342 1.13939,-1.563521 1.70058,-2.333609 0.82262,-1.07431 1.62103,-2.117034 2.41945,-3.159757 0.9211,-1.616039 1.81511,-3.184547 2.70913,-4.753051 0.48426,-0.901033 0.95428,-1.775579 1.42431,-2.65012 0.49155,-0.926564 0.96866,-1.825909 1.44576,-2.725225 0.49702,-0.915632 0.97944,-1.804335 1.46185,-2.693038 l 1.41895,-2.66085 c 0.45963,-0.882342 0.90576,-1.7374 1.35188,-2.593791 0.5933,-1.273967 0.5933,-1.275314 1.17485,-2.524052 0.49795,-1.62333 0.98124,-3.198925 1.46455,-4.774508 0.43592,-1.178284 0.85902,-2.321918 1.28213,-3.465543 h 3.94836 l 4.29169,1.373342 2.74669,1.030006 2.74668,1.716677 c 1.42999,0.963053 2.81792,1.89779 4.20586,2.832518 l 2.11903,1.818605 c 0.65115,0.753296 1.28315,1.484445 1.91516,2.215586 0.49066,0.972174 0.96679,1.915761 1.44308,2.85934 0.38487,1.070669 0.7584,2.109853 1.13194,3.149031 0.30825,1.096198 0.60744,2.160167 0.90662,3.224134 0.21705,1.063362 0.42772,2.09548 0.63839,3.127571 0.14592,1.780192 0.28753,3.508023 0.42917,5.235866 -0.14592,1.488359 -0.28754,2.93295 -0.42917,4.377527 -0.59872,1.381651 -0.59872,1.381651 -1.18558,2.735961 -0.53078,0.93751 -1.04594,1.84746 -1.56111,2.75741 -0.8019,1.16221 -0.8019,1.16221 -1.58792,2.30141 l -1.84543,2.24778 c -0.75148,0.84998 -1.48085,1.67494 -2.21023,2.49991 -0.88277,0.87186 -1.73962,1.71808 -2.59647,2.56429 -1.05789,0.87185 -2.0847,1.71808 -3.11147,2.56429 l -3.4119,2.49991 c -1.20199,0.81896 -2.36864,1.61384 -3.53528,2.40871 -1.24941,0.72777 -2.46209,1.43412 -3.67476,2.14048 -1.32238,0.53808 -2.60587,1.06032 -3.88935,1.58256 -1.27495,0.45418 -2.5124,0.89498 -3.74987,1.33579 -1.73655,0.52557 -1.73655,0.52557 -3.43872,1.04073 -0.90286,0.52167 -1.77917,1.02798 -2.65548,1.53429 -0.45053,1.16369 -0.8878,2.29316 -1.32506,3.42263 -0.0165,1.17098 -0.0324,2.30753 -0.0483,3.44408 l 4.12003,2.74668 c 1.53065,-0.10836 1.53065,-0.10836 3.031,-0.21458 1.30414,-0.39397 2.56992,-0.77637 3.83571,-1.15876 1.69811,-0.715 3.34628,-1.40897 4.99446,-2.10293 0.9269,-0.44027 1.82555,-0.86824 2.72521,-1.29556 0.96453,-0.47902 1.90172,-0.94328 2.83789,-1.40821 1.00011,-0.50272 1.9718,-0.99 2.9425,-1.47795 0.99895,-0.52233 1.96754,-1.02999 2.93712,-1.53696 0.97583,-0.53853 1.92294,-1.05989 2.87006,-1.58257 0.90658,-0.53762 1.78643,-1.06075 2.66628,-1.58256 l 4.24878,-2.99345 c 1.21112,-1.02507 2.3866,-2.02 3.5621,-3.01492 1.08162,-1.07432 2.13141,-2.11703 3.18122,-3.15975 0.93205,-1.08527 1.83668,-2.13861 2.74132,-3.19195 0.80072,-1.04149 1.57788,-2.05234 2.35506,-3.0632 0.65846,-1.08891 1.29755,-2.14579 1.93663,-3.20267 0.51072,-1.16552 1.0064,-2.29675 1.50209,-3.42799 0.3648,-1.37345 0.71887,-2.70651 1.07293,-4.03956 0.21887,-1.825788 0.43132,-3.59788 0.64375,-5.369985 0.081,-1.450909 0.0814,-1.450579 0.16094,-2.872747 0.0272,-1.472234 0.0269,-1.472578 0.0537,-2.915669 -0.0173,-0.984821 -0.0342,-1.941036 -0.051,-2.896893 -0.054,-0.955871 -0.10589,-1.883301 -0.15825,-2.811059 -0.22078,-1.736423 -0.43498,-3.421766 -0.64919,-5.107115 -0.38122,-1.211113 -0.75121,-2.386613 -1.12121,-3.562105 l -1.53964,-2.789601 c -0.96987,-1.227233 -0.96987,-1.227239 -1.92054,-2.430171 l -2.28532,-2.204857 -2.62866,-2.333609 c -1.00319,-0.753296 -1.97687,-1.484445 -2.95054,-2.215586 -1.07979,-0.673045 -2.12782,-1.326297 -3.17586,-1.979543 l -3.60502,-1.711313 -4.46336,-1.325061 c -1.54673,-0.366615 -3.04797,-0.722452 -4.54919,-1.078287 l -4.29707,-0.836881 c -1.07796,-0.299131 -2.12421,-0.589464 -3.17048,-0.879797 v -2.746683 l -1.37334,-2.66085 -2.74669,-2.832517 c -1.66346,-0.817136 -3.278,-1.610246 -4.89253,-2.403349 -0.98129,-0.330139 -1.93373,-0.650567 -2.88616,-0.970995 l -3.20804,-0.745682 c -1.88013,-0.224857 -1.88013,-0.224852 -3.72305,-0.445263 -1.27313,-0.05289 -2.5088,-0.104237 -3.7445,-0.155574 -1.19469,-0.02736 -2.35426,-0.0539 -3.51381,-0.08046 l -2.75206,0.681301 -1.37334,2.548193 v 2.945174 c 0.66939,0.693107 1.31911,1.365831 1.96881,2.038555 l 2.75205,1.738135 2.74132,1.781053 c 1.08636,0.661028 1.08636,0.661028 2.15121,1.308966 l -3.05247,1.046101 -3.90007,1.271414 -3.91081,1.303602 -2.87007,0.498909 1.37335,-4.120026 c 0.12195,-2.327138 0.12195,-2.327147 0.2414,-4.608205 0.0639,-1.789308 0.1258,-3.526005 0.18777,-5.262689 0.0529,-1.800254 0.10423,-3.54757 0.15557,-5.294877 0.39824,-2.050807 0.39824,-2.050815 0.7886,-4.061014 h 5.49337 l 4.40434,-0.911984 c 1.68353,-0.448695 3.31753,-0.884197 4.95155,-1.319696 l 5.15003,-1.523551 c 1.60509,-0.590967 3.16297,-1.164552 4.72086,-1.738136 1.13816,-0.649334 2.24283,-1.279569 3.34752,-1.909803 1.30038,-1.029467 1.30038,-1.029473 2.57502,-2.038555 0.72229,-0.718641 1.42336,-1.416153 2.12439,-2.113658 0.53258,-0.74053 1.04952,-1.459287 1.56646,-2.178035 0.73688,-2.253992 0.73688,-2.254003 1.45918,-4.463361 -0.0291,-1.284071 -0.0575,-2.530385 -0.0858,-3.77669 l -2.74668,-2.746683 -3.65866,-1.19631 c -2.3136,-0.0894 -2.3136,-0.0894 -4.58139,-0.177032 -0.84039,0.315319 -1.65473,0.622033 -2.47041,0.928078 -0.86318,0.45622 -1.70234,0.898353 -2.54014,1.341155 -0.86639,0.515268 -1.70729,1.01539 -2.5482,1.515503 l -2.56965,1.622797 c -1.34643,0.811383 -1.34643,0.811386 -2.66621,1.606703 l -2.51601,1.520869 c -1.33149,0.833551 -2.62382,1.642594 -3.91616,2.451629 0.228,-0.842671 0.44928,-1.660572 0.67057,-2.478453 0.23895,-1.025069 0.47085,-2.019995 0.70277,-3.014914 0.13005,-2.167299 0.13005,-2.16731 0.2575,-4.291693 -0.0876,-1.3424388 -0.17249,-2.6454023 -0.2575,-3.9483576 l -2.74669,-2.7466836 c -0.9977,-0.397625 -1.96607,-0.7835574 -2.93444,-1.1694857 l -3.5031,-1.0621947 C 162.80129,2.045857 161.57977,1.6988726 160.35825,1.3518896 L 156.76396,0.5150094 C 155.74619,0.37638703 154.75834,0.24184485 153.7705,0.10729855 152.4647,0.05310649 152.4647,0.05312022 151.18475,-6.41709e-7 Z M 173.24406,67.808758 c 1.67561,0.0186 1.67561,0.0186 3.38507,0.03755 0.69573,0.440808 1.39148,0.881621 2.10829,1.335789 -0.87631,2.219982 -0.87631,2.219988 -1.77032,4.484819 -0.501,0.88162 -1.002,1.763243 -1.51818,2.67158 -0.55766,0.924108 -1.11531,1.848219 -1.68986,2.800329 -0.52578,0.945352 -1.05157,1.890704 -1.5933,2.864706 -0.51162,0.874529 -1.02323,1.749085 -1.55036,2.65012 -1.41803,1.858849 -1.41803,1.858845 -2.86471,3.755237 l -2.74668,-4.120026 c -0.29919,-1.092286 -0.59837,-2.18457 -0.90663,-3.309968 -0.18234,-1.202038 -0.36468,-2.404101 -0.55255,-3.642575 -0.10616,-1.21444 -0.21244,-2.428884 -0.32188,-3.680127 0.13458,-1.023246 0.26909,-2.046495 0.40771,-3.100748 1.44458,-0.764778 2.88917,-1.529561 4.37753,-2.317514 z m -23.34681,9.613392 1.59865,1.974179 c 0.56827,1.741999 0.56827,1.742004 1.14803,3.519188 0.38594,1.187883 0.77186,2.37578 1.16948,3.599658 0.35053,1.276409 0.70105,2.552807 1.0622,3.867888 0.53641,1.909286 0.53641,1.909305 1.08365,3.857154 l 0.8047,3.78206 c 0.14693,1.171955 0.29386,2.343913 0.44526,3.551383 -0.14693,1.09406 -0.29388,2.18811 -0.44526,3.31533 -0.74532,0.98253 -1.49062,1.96506 -2.25851,2.97736 -0.98253,0.91525 -1.96506,1.83051 -2.97736,2.7735 -0.97191,0.92588 -1.94381,1.85176 -2.94517,2.8057 -0.92588,0.80195 -1.85176,1.60391 -2.8057,2.43017 l -4.12002,2.74668 c -1.61455,0.14162 -3.22907,0.28326 -4.89253,0.42917 -1.5579,-0.14163 -3.11577,-0.28325 -4.72087,-0.42917 l -2.74668,-4.12002 -0.68667,-4.12003 c 0.0301,-0.83914 0.0602,-1.67826 0.0912,-2.54282 0.1965,-0.97369 0.39301,-1.94736 0.59547,-2.95054 0.46559,-1.17196 0.93119,-2.34391 1.41088,-3.55138 0.63909,-1.26401 1.27819,-2.528023 1.93664,-3.830336 0.74177,-1.272868 1.48352,-2.545722 2.24777,-3.857154 0.87279,-1.276417 1.74555,-2.552812 2.64477,-3.867894 1.05688,-1.290567 2.11377,-2.581124 3.20267,-3.910805 1.64376,-1.76058 1.64376,-1.760591 3.3207,-3.556741 1.04096,-1.074582 2.08192,-2.149178 3.15441,-3.256322 0.88514,-0.539951 1.77032,-1.079897 2.6823,-1.636208 z" />
    <path
       id="path136"
       style="display:block;fill:#057ad7;stroke-width:1.37334"
       d="m 53.473631,130.29849 c -1.302314,0.0283 -2.566326,0.0558 -3.830336,0.0832 -1.934319,-0.015 -1.934323,-0.015 -3.830335,-0.0295 -1.295019,0.0124 -2.551951,0.0239 -3.808879,0.0349 -1.265833,0.0659 -2.49444,0.12909 -3.723044,0.19312 -1.27313,0.13651 -2.508817,0.26976 -3.744502,0.40229 -1.360679,0.24418 -2.681344,0.48186 -4.002003,0.71886 -1.923482,0.47986 -1.923484,0.47919 -3.808878,0.94953 -1.74197,0.45498 -1.741973,0.4553 -3.449449,0.90126 l -2.473088,1.55038 c -0.129382,1.15742 -0.255309,2.28047 -0.380888,3.40385 0.129388,1.17724 0.25531,2.32022 0.380888,3.46285 0.05654,0.99224 0.11142,1.9553 0.166304,2.91836 l 0.434533,2.57501 2.145847,4.12003 c 1.721826,-0.49612 3.393014,-0.97766 5.064198,-1.45918 1.123564,-0.47423 2.214085,-0.93452 3.304604,-1.39479 2.015592,-0.63935 2.015594,-0.63936 3.991274,-1.26606 2.579091,-0.20589 2.579096,-0.20589 5.107115,-0.40772 1.853152,-0.007 3.651804,-0.0145 5.45045,-0.0214 1.756481,0.005 3.461306,0.011 5.166126,0.0161 1.657986,0.14044 3.267213,0.2767 4.876436,0.41307 2.224195,0.5337 2.2242,0.5337 4.40435,1.05683 1.304138,0.57455 2.569921,1.1322 3.835701,1.68986 1.059725,0.7916 2.088286,1.55992 3.116842,2.32824 0.808019,1.07615 1.592273,2.12063 2.376525,3.16512 l 1.47527,4.53847 0.842244,4.90326 0.960267,4.96764 c -0.180574,1.17098 -0.355835,2.30753 -0.531097,3.44408 -1.3698,-0.27725 -2.699316,-0.54633 -4.028827,-0.81543 -0.911413,-0.33583 -1.795019,-0.66112 -2.679627,-0.98708 -0.987336,-0.32079 -1.946641,-0.63283 -2.904939,-0.94418 -0.97548,-0.11838 -1.92328,-0.23389 -2.87007,-0.3487 -1.0017,-0.0385 -1.972936,-0.0753 -2.945174,-0.11262 -1.541833,-0.031 -1.541164,-0.0313 -3.052466,-0.0617 -1.070441,0.003 -2.110073,0.005 -3.149031,0.008 -1.119688,0.005 -2.207118,0.011 -3.293875,0.0161 -1.116496,0.0255 -2.199486,0.0503 -3.283144,0.0751 -1.6099,0.0817 -1.60856,0.0836 -3.186582,0.16362 -1.483925,0.13239 -1.48527,0.13033 -2.93981,0.26018 -1.557669,0.30461 -3.069529,0.60025 -4.581383,0.89589 -1.302314,0.42499 -2.566326,0.83747 -3.830336,1.24996 l -3.492365,1.53964 c -1.088908,0.61443 -2.145795,1.21104 -3.202676,1.80763 -1.074317,0.68763 -2.117039,1.35505 -3.159759,2.02247 -1.481893,1.14595 -1.481896,1.14595 -2.934445,2.26922 -0.888272,0.86456 -1.75042,1.7037 -2.612569,2.54283 -0.775185,0.94482 -1.527575,1.86185 -2.279961,2.77887 -0.643861,1.00319 -1.268787,1.97686 -1.89371,2.95054 -0.523479,1.09803 -1.031562,2.16376 -1.5396449,3.2295 l -1.2124026,3.487 -0.8476101,4.06638 -0.4184408,5.26806 c -0.026451,0.94389 -0.052118,1.86004 -0.077786,2.77618 -0.00645,0.94209 -0.012635,1.85646 -0.018774,2.77083 l 0.053643,5.22514 0.4613577,4.55992 1.2231325,3.10074 c 0.7693914,1.20828 0.7693942,1.20828 1.5235511,2.39262 l 2.9183511,4.12003 c 0.945486,1.0674 0.945488,1.0674 1.872251,2.11366 l 2.076107,2.00637 c 0.720466,0.59461 1.419746,1.17173 2.119024,1.74886 0.826256,0.51436 1.628216,1.01358 2.430171,1.51282 1.419583,0.6502 1.419586,0.6502 2.811059,1.28751 1.233002,0.32102 2.429743,0.63259 3.62648,0.94417 1.78749,0.14592 3.522409,0.28754 5.257324,0.42917 1.459374,0.0369 1.458371,0.039 2.888847,0.0751 0.994632,0.004 1.961019,0.007 2.926398,0.011 1.413657,0.003 1.414667,0.004 2.800329,0.008 0.93239,-0.0207 1.836354,-0.0415 2.741319,-0.0617 l 5.359252,-0.46186 c 1.710882,-0.37573 3.371449,-0.74042 5.03201,-1.10511 2.313596,-0.82899 2.313601,-0.82899 4.581383,-1.64157 l 3.846429,-2.36043 c 1.172812,-0.83174 2.311133,-1.639 3.449449,-2.44627 1.223882,-0.76242 2.411772,-1.50241 3.599658,-2.2424 0.964878,-0.40493 1.901382,-0.79794 2.837882,-1.19095 l 1.201674,3.60502 1.545009,4.63503 3.84643,1.20704 c 1.581381,0.14409 3.116254,0.28394 4.651123,0.4238 1.459972,-0.11714 2.877343,-0.22976 4.294375,-0.34333 1.254092,-0.43741 2.47097,-0.86297 3.688174,-1.28751 0.240445,-1.50864 0.241845,-1.50932 0.477456,-2.98809 l -0.670582,-4.1254 -0.600837,-4.90325 c -0.109277,-0.9486 -0.213132,-1.86891 -0.319195,-2.7896 -0.08805,-1.03578 -0.174721,-2.04179 -0.260184,-3.0471 -0.03071,-1.14442 -0.0614,-2.25554 -0.0912,-3.3663 -0.0049,-1.81243 -0.0032,-1.81238 -0.0081,-3.58893 0.01099,-1.89324 0.01058,-1.89411 0.02147,-3.74986 0.01387,-1.31641 0.02678,-2.5929 0.04024,-3.87058 0.0085,-1.33845 0.0159,-2.63854 0.02414,-3.93763 0.01319,-2.02016 0.01391,-2.01917 0.02682,-3.99932 0.01154,-1.37629 0.02375,-2.71177 0.03487,-4.0476 0.01318,-1.38792 0.02478,-2.73536 0.03755,-4.08247 0.01561,-1.40047 0.03043,-2.76075 0.0456,-4.12003 l 0.04292,-4.09052 c 0.0081,-1.36718 0.01618,-2.69379 0.02414,-4.02078 0.0074,-1.32224 0.01431,-2.606 0.02147,-3.88934 0.01905,-1.24569 0.03785,-2.45499 0.05633,-3.66404 0.0047,-1.18624 0.0088,-2.33835 0.01346,-3.48969 -0.02085,-1.12832 -0.04146,-2.22285 -0.06169,-3.31801 -0.07776,-1.08537 -0.152523,-2.13848 -0.228002,-3.19194 l -0.560602,-3.17586 -0.708129,-2.96663 c -0.746197,-2.4465 -0.746534,-2.44617 -1.477952,-4.84425 l -1.888345,-3.28314 c -0.75877,-0.8682 -1.495228,-1.71089 -2.231681,-2.55356 -0.729586,-0.8828 -1.437718,-1.73964 -2.145846,-2.59647 -1.138156,-0.8682 -2.242841,-1.71089 -3.347521,-2.55356 -0.977646,-0.51722 -1.926543,-1.01887 -2.875434,-1.52087 -1.152748,-0.51333 -2.271594,-1.0119 -3.390438,-1.51014 -1.243945,-0.46853 -2.451308,-0.92396 -3.658668,-1.37871 -1.295017,-0.36867 -2.55195,-0.72583 -3.808878,-1.08365 -1.265834,-0.16985 -2.494439,-0.33405 -3.723044,-0.49891 -1.27313,-0.0618 -2.508817,-0.12236 -3.744502,-0.18239 -1.923482,-0.001 -1.923486,-0.001 -3.808878,-0.003 z m 0.630343,54.05656 c 1.573373,0.008 1.573376,0.008 3.178535,0.0161 1.054227,-0.005 2.108456,-0.011 3.194629,-0.0161 1.52292,0.003 1.522922,0.003 3.076607,0.005 1.754389,0.0602 3.508783,0.12044 5.316335,0.18239 l 4.120026,1.37335 0.598155,2.84324 0.09388,3.70695 c 0.03584,2.0009 0.03586,2.0009 0.07242,4.04224 0.0026,1.40475 0.0054,2.8095 0.0081,4.25682 0.05046,1.38882 0.100914,2.77764 0.152892,4.20854 0.008,1.33926 0.01593,2.6785 0.02414,4.05834 -0.116514,1.90298 -0.117187,1.90499 -0.236043,3.84642 -0.235788,1.07335 -0.470731,2.14483 -0.713547,3.25084 -1.20559,1.16664 -2.411182,2.33328 -3.653304,3.53529 -1.513626,0.64617 -3.027254,1.29232 -4.586747,1.95808 -2.020823,0.83647 -2.020827,0.83647 -4.082473,1.68986 -1.372,0.34874 -2.744003,0.6975 -4.157578,1.05682 -1.442812,0.13638 -2.885629,0.27264 -4.372163,0.41308 -2.212015,0.008 -2.212021,0.008 -4.468725,0.0161 -1.552572,-0.0283 -3.105149,-0.0566 -4.704768,-0.0858 l -4.307787,-0.34331 -3.14903,-0.68667 c -0.83028,-0.31158 -1.660564,-0.62315 -2.516005,-0.94417 -1.302957,-0.82144 -2.605918,-1.64286 -3.948358,-2.48918 l -2.66085,-2.74669 -1.459175,-4.12002 -0.42917,-3.56211 -0.171667,-3.99127 c 0.04249,-1.31889 0.08498,-2.63778 0.128751,-3.99665 l 0.472086,-3.55673 2.145846,-4.03419 c 1.104681,-0.93474 2.209365,-1.86946 3.347521,-2.83252 0.763008,-0.51871 1.526019,-1.03741 2.31215,-1.57183 0.823199,-0.50101 1.646402,-1.00201 2.494546,-1.51819 l 4.806697,-2.40335 c 0.892131,-0.2724 1.784601,-0.54549 2.703766,-0.82615 0.920678,-0.1808 1.841024,-0.36092 2.789601,-0.54719 0.891468,-0.0586 1.782603,-0.1166 2.701084,-0.17704 1.384668,-0.003 1.385006,-0.004 2.797647,-0.005 1.525576,-0.003 1.525578,-0.003 3.081973,-0.005 z" />
    <path
       d="m 133.41725,158.44943 c 1.01512,-0.23443 2.03023,-0.46886 3.07611,-0.71039 1.43944,-0.24135 2.87888,-0.48269 4.36194,-0.73135 1.62181,-0.25817 3.24363,-0.51633 4.91459,-0.78232 1.77278,-0.25036 3.54555,-0.50072 5.37206,-0.75868 0.89562,-0.1133 1.79123,-0.22667 2.714,-0.34344 1.3598,-0.15939 1.3598,-0.15939 2.74708,-0.32201 0.92266,-0.10039 1.84534,-0.20071 2.79598,-0.3041 1.40613,-0.14012 1.40613,-0.14012 2.84065,-0.28307 1.43274,-0.12827 1.43274,-0.12827 2.89443,-0.25923 1.44736,-0.11784 1.44736,-0.11784 2.92395,-0.238 1.45367,-0.10685 1.45367,-0.10685 2.93672,-0.21573 0.9689,-0.0666 1.93781,-0.13308 2.93608,-0.20172 0.96238,-0.0674 1.92476,-0.13486 2.9163,-0.20439 0.95605,-0.0597 1.91211,-0.11934 2.89714,-0.18086 1.42341,-0.0695 1.42341,-0.0695 2.87558,-0.14052 0.93849,-0.0292 1.87698,-0.0584 2.84389,-0.0884 1.38662,-0.008 1.38662,-0.008 2.80125,-0.0177 0.91039,0.0162 1.82077,0.0323 2.75874,0.0489 1.77522,0.10039 3.55046,0.20071 5.37947,0.3041 1.72627,0.18622 3.45253,0.37243 5.23112,0.56429 1.60305,0.3316 3.20609,0.66321 4.85771,1.00486 1.44108,0.5051 2.88215,1.01019 4.36689,1.53059 1.18321,0.76866 2.36642,1.5373 3.58549,2.32925 0.76542,1.18468 1.53084,2.36936 2.31944,3.58993 0.50103,1.4416 1.00206,2.8832 1.51827,4.36848 0.32722,1.60312 0.65444,3.20622 0.99158,4.85791 0.18197,1.72599 0.36393,3.45196 0.55142,5.23025 0.0971,1.77489 0.19421,3.54978 0.29426,5.37846 0.0147,0.91016 0.0292,1.82035 0.0443,2.75811 -0.011,1.38627 -0.011,1.38627 -0.0221,2.80054 -0.0459,1.40733 -0.0459,1.40733 -0.0926,2.84309 -0.0717,1.42301 -0.0717,1.42301 -0.14481,2.87475 -0.0613,0.95581 -0.12236,1.91161 -0.18545,2.89638 -0.0693,0.96218 -0.13872,1.92435 -0.21019,2.91569 -0.0694,0.96881 -0.13872,1.93763 -0.21018,2.9358 -0.11138,1.45362 -0.11138,1.45362 -0.22502,2.93661 -0.12236,1.44735 -0.12236,1.44735 -0.2472,2.92394 -0.0882,0.95518 -0.17631,1.91036 -0.26713,2.89448 -0.0949,0.93744 -0.18978,1.87489 -0.28754,2.84072 -0.10135,0.9227 -0.20273,1.84541 -0.30716,2.79608 -0.10698,0.90656 -0.2139,1.81313 -0.32409,2.74716 -0.11454,0.89566 -0.2292,1.79131 -0.34727,2.7141 -0.25744,1.77278 -0.51489,3.54557 -0.78015,5.37207 -0.25826,1.62181 -0.51653,3.24363 -0.78263,4.91457 -0.24438,1.43944 -0.48878,2.87888 -0.74058,4.36194 -0.17994,1.01512 -0.35986,2.03023 -0.54525,3.07611 -0.64754,-0.54604 -1.29507,-1.09207 -1.96223,-1.65464 -0.85614,-0.72684 -1.71227,-1.45367 -2.59434,-2.20251 -1.26872,-1.07398 -1.26872,-1.07398 -2.56307,-2.16966 -0.82294,-0.73038 -1.64588,-1.46075 -2.49375,-2.21324 -0.68784,-0.70116 -1.37568,-1.40232 -2.08436,-2.12473 -0.94924,-1.03015 -0.94924,-1.03015 -1.91764,-2.08113 -1.22861,-1.33129 -2.45721,-2.66257 -3.72305,-4.03419 -0.61961,-0.70637 -1.23922,-1.41272 -1.87762,-2.14048 -0.92411,-0.97988 -0.92411,-0.97988 -1.86688,-1.97955 -1.20028,-0.9064 -2.40056,-1.81281 -3.63721,-2.74668 -1.11531,0.23722 -2.23061,0.47445 -3.37971,0.71886 -1.72606,1.00378 -1.72606,1.00378 -3.487,2.02782 -1.91195,0.87632 -1.91195,0.87632 -3.86252,1.77032 -1.44459,0.60545 -2.88917,1.21091 -4.37753,1.83471 -1.67827,0.59836 -3.35653,1.19674 -5.08566,1.81323 -0.93031,0.26422 -1.86061,0.52845 -2.8191,0.80067 -1.52558,0.32065 -1.52558,0.32065 -3.08198,0.64778 -1.72738,0.18788 -1.72738,0.18788 -3.48968,0.37955 -1.22063,0.0695 -2.44127,0.13897 -3.69891,0.21056 -1.25161,0.029 -2.50323,0.058 -3.79277,0.0879 -1.24808,0.003 -2.49616,0.005 -3.78206,0.008 -1.77651,0.0124 -1.77651,0.0124 -3.58893,0.0248 -1.15956,-0.0222 -2.31912,-0.0446 -3.51383,-0.0677 -1.14473,-0.0674 -2.28947,-0.135 -3.46888,-0.20453 -1.1567,-0.14462 -2.31338,-0.28956 -3.50511,-0.4389 -1.23281,-0.2848 -2.46562,-0.5696 -3.7358,-0.86303 -1.81003,-0.52346 -1.81003,-0.52346 -3.65664,-1.0575 -1.08189,-0.34233 -2.16378,-0.68467 -3.27846,-1.03738 -1.01063,-0.38349 -2.02127,-0.767 -3.06252,-1.16211 -0.98408,-0.47379 -1.96816,-0.94757 -2.98206,-1.43571 -0.88538,-0.48928 -1.77076,-0.97854 -2.68298,-1.48264 -1.30295,-0.84976 -2.60591,-1.69951 -3.94835,-2.57502 0,-0.4532 0,-0.9064 0,-1.37334 0.99846,-0.24608 1.99692,-0.49215 3.02563,-0.74568 1.38086,-0.2921 2.76171,-0.58421 4.18441,-0.88516 1.50477,-0.37 3.00956,-0.74 4.55992,-1.12121 2.33152,-0.67714 2.33152,-0.67714 4.71014,-1.36798 1.41271,-0.55057 2.82543,-1.10114 4.28096,-1.66839 1.36316,-0.63909 2.72629,-1.27818 4.13076,-1.93663 2.01551,-1.05953 2.01551,-1.05953 4.07173,-2.14047 1.31889,-0.82321 2.6378,-1.64641 3.99665,-2.49456 1.33305,-1.03563 2.66611,-2.07127 4.03956,-3.1383 1.24454,-1.08875 2.48907,-2.17749 3.77132,-3.29924 1.66499,-1.53752 1.66499,-1.53752 3.36362,-3.10611 0.84444,-0.92942 1.68888,-1.85883 2.55892,-2.81642 0.6798,-2.03941 0.6798,-2.03941 1.37334,-4.12003 -0.739,-0.93761 -1.47801,-1.87521 -2.2394,-2.84124 -1.10036,-1.06285 -2.20072,-2.12571 -3.33443,-3.22077 -1.18169,-1.1578 -2.36339,-2.31559 -3.58089,-3.50846 -1.25605,-1.20382 -2.51209,-2.40765 -3.80619,-3.64794 -1.25073,-1.21445 -2.50148,-2.42888 -3.79011,-3.68013 -1.18345,-1.15426 -2.36692,-2.30851 -3.58624,-3.49773 -1.10192,-1.05976 -2.20384,-2.11952 -3.33914,-3.21139 -0.79764,-0.82033 -1.59529,-1.64065 -2.4171,-2.48583 0,-0.4532 0,-0.90641 0,-1.37334 z"
       style="display:block;fill:#127d12;stroke-width:1.37334"
       id="path138" />
    <path
       d="m 11.189837,27.981958 c 0.971306,0.819051 0.971306,0.819051 1.962235,1.654649 1.284197,1.090242 1.284197,1.090242 2.594336,2.202511 1.268721,1.073978 1.268721,1.073978 2.563072,2.169652 0.822937,0.730369 1.645875,1.460737 2.49375,2.213239 0.68784,0.701158 1.375679,1.402318 2.084363,2.124723 0.632821,0.686775 1.265643,1.373551 1.917642,2.081136 1.228603,1.331283 2.457207,2.662566 3.723043,4.034192 0.92942,1.059538 0.92942,1.059538 1.877616,2.140482 0.616072,0.653249 1.232144,1.306498 1.866887,1.979543 1.800418,1.359608 1.800418,1.359608 3.637209,2.746684 1.141858,-0.253157 2.283718,-0.506313 3.460177,-0.767141 1.124156,-0.653249 2.248312,-1.306498 3.406532,-1.979543 1.14894,-0.469136 2.297879,-0.938271 3.481636,-1.421623 1.1454,-0.465596 2.290798,-0.93119 3.470907,-1.410894 1.14894,-0.469137 2.297879,-0.938272 3.481635,-1.421623 1.08875,-0.408946 2.177498,-0.81789 3.29924,-1.239227 0.861816,-0.247402 1.72363,-0.494806 2.611562,-0.749705 0.950996,-0.2058 1.901992,-0.4116 2.881805,-0.623637 1.80219,-0.07612 3.604378,-0.152247 5.461179,-0.230679 1.027673,-0.0103 2.055346,-0.02057 3.114161,-0.03117 1.079011,0.0014 2.158024,0.0029 3.269733,0.0044 1.666317,0.0062 1.666317,0.0062 3.366297,0.01236 1.102026,0.0136 2.204053,0.02722 3.339473,0.04124 1.069719,0.027 2.139437,0.054 3.24157,0.08181 0.966154,0.04028 1.932308,0.08056 2.927739,0.122048 2.076589,0.185885 2.076589,0.185885 4.19513,0.375524 1.662335,0.28148 1.662335,0.28148 3.358248,0.568649 1.016163,0.244305 2.032339,0.488609 3.079293,0.740318 1.023249,0.350523 2.046485,0.701047 3.100743,1.062193 1.27817,0.5488 2.55635,1.097601 3.87325,1.663032 1.2711,0.612531 2.54219,1.225063 3.8518,1.856156 1.15071,0.596599 2.30142,1.193198 3.487,1.807876 0.83205,0.508083 1.6641,1.016166 2.52137,1.539645 0,0.453203 0,0.906406 0,1.373342 -1.08167,0.230142 -2.16333,0.460284 -3.27778,0.697399 -1.49593,0.279712 -2.99184,0.559423 -4.5331,0.84761 -1.62339,0.362917 -3.24677,0.725833 -4.91935,1.099746 -1.69067,0.486838 -3.381322,0.973678 -5.123214,1.475269 -1.591511,0.699278 -3.183035,1.398555 -4.822787,2.119024 -1.524249,0.801956 -3.048497,1.603912 -4.618935,2.430171 -1.464058,0.840904 -2.928114,1.681806 -4.436538,2.548193 -1.311809,0.830281 -2.623618,1.660562 -3.97518,2.516004 -1.042721,0.731144 -2.085442,1.462288 -3.159759,2.215587 -0.855066,0.685115 -1.710133,1.370231 -2.59111,2.076107 -1.048917,0.897554 -1.048917,0.897554 -2.119024,1.813239 -0.575355,0.704589 -1.150709,1.409178 -1.7435,2.135118 -0.601356,1.046483 -1.202714,2.092965 -1.822293,3.171159 -0.305049,1.219539 -0.610097,2.439066 -0.924391,3.69555 1.031324,1.560762 1.031324,1.560762 2.083484,3.153056 1.107558,1.048477 2.215116,2.096942 3.356237,3.177185 1.186117,1.148951 2.372233,2.297889 3.594293,3.481641 1.267552,1.18081 2.535103,2.361609 3.841066,3.578198 1.256929,1.202045 2.513859,2.404104 3.808877,3.642569 1.784486,1.712795 1.784486,1.712795 3.605022,3.460175 1.110657,1.04229 2.221314,2.08457 3.365627,3.15843 0.804833,0.80593 1.609666,1.61188 2.438886,2.44224 0,0.4532 0,0.90641 0,1.37334 -1.015111,0.23443 -2.030226,0.46886 -3.076102,0.71039 -1.439439,0.24135 -2.878877,0.48269 -4.361937,0.73136 -1.621816,0.25816 -3.243632,0.51632 -4.914595,0.78231 -1.772778,0.25036 -3.545557,0.50072 -5.372056,0.75866 -0.895621,0.1133 -1.79124,0.22669 -2.714001,0.34346 -0.906534,0.1063 -1.813069,0.21253 -2.747073,0.32201 -1.384014,0.15053 -1.384014,0.15053 -2.795988,0.30411 -0.937416,0.0934 -1.874832,0.18682 -2.840654,0.28306 -0.955163,0.0856 -1.910326,0.17109 -2.894433,0.25923 -0.964906,0.0786 -1.92981,0.15708 -2.923953,0.238 -1.453668,0.10685 -1.453668,0.10685 -2.936703,0.21573 -1.453363,0.0998 -1.453363,0.0998 -2.936085,0.20171 -0.962381,0.0674 -1.924761,0.13487 -2.916303,0.2044 -1.434084,0.0895 -1.434084,0.0895 -2.89714,0.18085 -1.423411,0.0695 -1.423411,0.0695 -2.87558,0.14052 -0.938485,0.0293 -1.876972,0.0584 -2.843897,0.0884 -1.386615,0.008 -1.386615,0.008 -2.801242,0.0177 -1.365578,-0.0242 -1.365578,-0.0242 -2.758743,-0.0489 -1.775226,-0.10039 -3.550453,-0.2007 -5.379473,-0.3041 -1.726266,-0.18622 -3.452532,-0.37243 -5.231109,-0.56429 -1.603049,-0.33161 -3.206098,-0.66321 -4.857724,-1.00486 -1.441071,-0.5051 -2.882142,-1.01019 -4.366881,-1.5306 -1.183212,-0.76865 -2.366424,-1.53729 -3.585492,-2.32925 C 10.424422,107.82436 9.6590049,106.63968 8.870395,105.4191 8.1188515,103.25677 8.1188515,103.25677 7.3521244,101.05069 6.8612962,98.646022 6.8612962,98.646022 6.360551,96.19278 6.1785819,94.466791 5.9966113,92.740803 5.8091268,90.96252 5.6634702,88.300201 5.6634702,88.300201 5.5148691,85.584074 c -0.01464,-0.910168 -0.02928,-1.82035 -0.044359,-2.758109 0.00728,-0.924191 0.014585,-1.848367 0.022097,-2.800547 0.030543,-0.938225 0.0611,-1.876438 0.092577,-2.843086 0.047792,-0.948672 0.095571,-1.897342 0.1448107,-2.874759 0.061196,-0.955802 0.1224059,-1.911604 0.1854574,-2.89637 0.069368,-0.962177 0.1387213,-1.924355 0.2101831,-2.915689 0.069368,-0.968816 0.1387213,-1.937633 0.2101845,-2.935808 0.111378,-1.453618 0.111378,-1.453618 0.2250207,-2.936603 0.081577,-0.964901 0.1631502,-1.929801 0.2471974,-2.923941 0.088155,-0.955181 0.1763096,-1.910362 0.2671342,-2.894488 0.094884,-0.937436 0.1897738,-1.874874 0.2875352,-2.840717 0.1013663,-0.922703 0.2027272,-1.845407 0.307163,-2.79607 0.1069421,-0.906569 0.2138952,-1.813137 0.3240853,-2.747177 0.1145916,-0.895648 0.2291956,-1.791297 0.3472659,-2.714087 0.2574508,-1.772785 0.5149016,-3.54557 0.7801543,-5.372076 0.2582666,-1.62181 0.5165331,-3.243621 0.7826263,-4.914575 0.2443949,-1.43944 0.4887889,-2.878879 0.7405899,-4.361937 0.269895,-1.522672 0.269895,-1.522672 0.545241,-3.076104 z"
       style="display:block;fill:#0279d7;stroke-width:1.37334"
       id="path140" />
  </g>
</svg>
