<?xml version="1.0" encoding="UTF-8" standalone="no"?>
<!-- Created with Inkscape (http://www.inkscape.org/) -->

<svg
   width="240"
   height="240"
   id="svg5"
   sodipodi:docname="niu.svg"
   version="1.1"
   inkscape:version="1.2.2 (b0a8486541, 2022-12-01)"
   xml:space="preserve"
   xmlns:inkscape="http://www.inkscape.org/namespaces/inkscape"
   xmlns:sodipodi="http://sodipodi.sourceforge.net/DTD/sodipodi-0.dtd"
   xmlns="http://www.w3.org/2000/svg"
   xmlns:svg="http://www.w3.org/2000/svg"><sodipodi:namedview
     id="namedview7"
     pagecolor="#ffffff"
     bordercolor="#111111"
     borderopacity="1"
     inkscape:pageshadow="0"
     inkscape:pageopacity="0"
     inkscape:pagecheckerboard="1"
     inkscape:document-units="px"
     showgrid="true"
     units="px"
     width="512px"
     inkscape:zoom="1.9952573"
     inkscape:cx="258.11208"
     inkscape:cy="167.64755"
     inkscape:window-width="1920"
     inkscape:window-height="1031"
     inkscape:window-x="0"
     inkscape:window-y="0"
     inkscape:window-maximized="1"
     inkscape:current-layer="layer1"
     inkscape:showpageshadow="false"
     showborder="true"
     inkscape:deskcolor="#d1d1d1"><inkscape:grid
       type="xygrid"
       id="grid907"
       spacingx="10"
       spacingy="10"
       empspacing="4" /></sodipodi:namedview><defs
     id="defs2"><inkscape:path-effect
       effect="bspline"
       id="path-effect1133"
       is_visible="true"
       lpeversion="1"
       weight="33.333333"
       steps="2"
       helper_size="0"
       apply_no_weight="true"
       apply_with_weight="true"
       only_selected="false" /><inkscape:path-effect
       effect="bspline"
       id="path-effect857"
       is_visible="true"
       lpeversion="1"
       weight="33.333333"
       steps="2"
       helper_size="0"
       apply_no_weight="true"
       apply_with_weight="true"
       only_selected="false" /></defs><g
     inkscape:label="图层 1"
     inkscape:groupmode="layer"
     id="layer1"><path
       id="path4079"
       style="fill:#5589fc;stroke:none;stroke-width:15;stroke-linecap:round;stroke-linejoin:round;fill-opacity:1"
       d="M 51.677734 218.63672 C 52.47415 217.95543 53.441796 217.09616 54.6875 215.78125 C 55.390624 215.03906 56.151368 214.18896 56.957031 213.22461 C 57.762695 212.26025 58.613282 211.18164 59.492188 209.98047 C 60.371093 208.7793 61.280274 207.45654 62.203125 206.00391 C 63.125976 204.55127 64.062501 202.96875 65 201.25 C 65.937499 199.53125 66.874024 197.67529 67.796875 195.67578 C 68.719726 193.67627 69.628907 191.5332 70.507812 189.23828 C 71.386718 186.94336 72.237305 184.49756 73.042969 181.89258 C 73.848632 179.2876 74.609376 176.52343 75.3125 173.59375 C 76.015624 170.66407 76.65918 167.56787 77.230469 164.29883 C 77.801757 161.02979 78.300782 157.58789 78.710938 153.96484 C 79.121093 150.3418 79.444336 146.53857 79.664062 142.54688 C 79.773926 140.55103 79.8573 138.50677 79.914062 136.41602 C 79.970825 134.32526 80 132.1875 80 130 C 80 125.625 79.921875 121.32861 79.775391 117.11719 C 79.628906 112.90577 79.414062 108.77929 79.140625 104.74609 C 78.867188 100.71289 78.535156 96.771969 78.154297 92.931641 C 77.773438 89.091312 77.34375 85.351559 76.875 81.71875 C 76.40625 78.085941 75.898437 74.561032 75.361328 71.150391 C 74.824219 67.73975 74.257812 64.443356 73.671875 61.269531 C 73.085938 58.095706 72.480468 55.043454 71.865234 52.121094 C 71.250001 49.198733 70.624999 46.406247 70 43.75 C 69.375001 41.093753 68.749999 38.574705 68.134766 36.199219 C 67.519532 33.823733 66.914062 31.591795 66.328125 29.511719 C 65.156251 25.351567 64.062499 21.796872 63.125 18.90625 C 62.598163 17.281837 62.265848 16.380142 61.851562 15.185547 A 120 120 0 0 0 0 120 A 120 120 0 0 0 51.677734 218.63672 z " /><path
       id="path4086"
       style="fill:#5589fc;stroke:none;stroke-width:15;stroke-linecap:round;stroke-linejoin:round;fill-opacity:1"
       d="M 110.98633 119.05859 C 111.0085 119.58005 111.05889 120.09395 111.07422 120.61719 C 111.13617 122.73236 111.14087 124.86157 111.08594 127.00391 C 111.03101 129.14624 110.91608 131.30231 110.73633 133.46875 C 110.55658 135.63519 110.3125 137.8125 110 140 C 109.24481 145.28633 108.46684 150.30338 107.67188 155.0625 C 106.87691 159.82162 106.06534 164.32193 105.24219 168.58008 C 104.41904 172.83822 103.58388 176.8533 102.74414 180.63672 C 101.90441 184.42014 101.05957 187.97366 100.21484 191.30859 C 99.370121 194.64353 98.525613 197.75918 97.6875 200.67188 C 96.849387 203.58457 96.017172 206.29386 95.197266 208.81055 C 94.377359 211.32724 93.569399 213.6519 92.779297 215.79883 C 91.989194 217.94576 91.217452 219.91533 90.46875 221.71875 C 89.720048 223.52217 88.994532 225.16034 88.298828 226.64648 C 87.603124 228.13263 86.937749 229.46505 86.306641 230.66016 C 85.675532 231.85526 85.078354 232.91148 84.523438 233.8418 C 84.415406 234.02291 84.329491 234.14278 84.224609 234.31445 A 120 120 0 0 0 120 240 A 120 120 0 0 0 240 120 A 120 120 0 0 0 233.16602 80.128906 C 232.39481 80.147503 232.61988 80.128943 231.71875 80.15625 C 229.14063 80.234375 226.05467 80.351563 222.59766 80.527344 C 219.14063 80.703125 215.3125 80.9375 211.25 81.25 C 207.1875 81.5625 202.89062 81.953126 198.49609 82.441406 C 194.10158 82.929687 189.60937 83.515627 185.15625 84.21875 C 182.92969 84.570312 180.71338 84.950685 178.52344 85.363281 C 176.3335 85.775878 174.16992 86.220704 172.05078 86.699219 C 169.93164 87.177733 167.85595 87.69092 165.8418 88.240234 C 163.82764 88.78955 161.875 89.375002 160 90 C 158.125 90.624998 156.28857 91.288576 154.49414 91.984375 C 152.69971 92.680174 150.94726 93.408205 149.23828 94.160156 C 147.5293 94.912108 145.86474 95.688967 144.24609 96.482422 C 142.62745 97.275877 141.05469 98.085939 139.53125 98.90625 C 138.00781 99.726561 136.5327 100.55615 135.10938 101.38867 C 133.68604 102.22119 132.31445 103.05664 130.99609 103.88672 C 128.35939 105.54687 125.9375 107.1875 123.75 108.75 C 121.5625 110.3125 119.60936 111.79688 117.91016 113.14453 C 116.21094 114.49219 114.76562 115.70313 113.59375 116.71875 C 112.45206 117.70821 111.59089 118.49407 110.98633 119.05859 z " /><path
       id="path4082"
       style="fill:#5589fc;stroke:none;stroke-width:15;stroke-linecap:round;stroke-linejoin:round;fill-opacity:1"
       d="M 120 0 A 120 120 0 0 0 63.738281 14.044922 C 64.299742 14.673593 64.804064 15.226837 65.470703 15.998047 C 66.591307 17.294432 67.851564 18.789064 69.21875 20.46875 C 70.585936 22.148436 72.061037 24.014162 73.611328 26.052734 C 75.16162 28.091307 76.787111 30.302737 78.457031 32.675781 C 80.126951 35.048826 81.840334 37.582522 83.566406 40.265625 C 85.292479 42.948728 87.031252 45.781253 88.75 48.75 C 90.468748 51.718747 92.168459 54.82471 93.816406 58.054688 C 94.64038 59.669676 95.451722 61.314516 96.246094 62.990234 C 97.040466 64.665953 97.817384 66.372072 98.574219 68.105469 C 99.331054 69.838865 100.06793 71.600649 100.7793 73.388672 C 101.49066 75.176695 102.17603 76.99048 102.83398 78.830078 C 103.49194 80.669676 104.12213 82.535707 104.71875 84.423828 C 105.31537 86.311949 105.87891 88.222658 106.40625 90.15625 C 106.93359 92.089842 107.42487 94.045473 107.875 96.021484 C 107.97029 96.439795 108.04315 96.868934 108.13477 97.289062 L 160 80 C 161.875 79.375002 163.82764 78.827636 165.8418 78.351562 C 167.85595 77.87549 169.93164 77.470703 172.05078 77.128906 C 174.16992 76.787111 176.3335 76.509277 178.52344 76.287109 C 180.71338 76.064943 182.92969 75.898437 185.15625 75.78125 C 187.38281 75.664063 189.61865 75.595215 191.84766 75.568359 C 194.07665 75.541504 196.29884 75.556641 198.49609 75.605469 C 200.69336 75.654297 202.8667 75.737793 204.99805 75.847656 C 207.12938 75.957519 209.21875 76.09375 211.25 76.25 C 215.3125 76.5625 219.14063 76.953126 222.59766 77.363281 C 226.05467 77.773437 229.14063 78.203125 231.71875 78.59375 C 232.3146 78.68403 232.13587 78.670476 232.67578 78.755859 A 120 120 0 0 0 120 0 z " /></g></svg>
