<?xml version="1.0" encoding="UTF-8" standalone="no"?>
<!-- Created with Inkscape (http://www.inkscape.org/) -->

<svg
   width="240"
   height="240"
   id="svg5"
   sodipodi:docname="youdao.svg"
   version="1.1"
   inkscape:version="1.2.1 (9c6d41e410, 2022-07-14, custom)"
   xml:space="preserve"
   xmlns:inkscape="http://www.inkscape.org/namespaces/inkscape"
   xmlns:sodipodi="http://sodipodi.sourceforge.net/DTD/sodipodi-0.dtd"
   xmlns="http://www.w3.org/2000/svg"
   xmlns:svg="http://www.w3.org/2000/svg"><sodipodi:namedview
     id="namedview7"
     pagecolor="#ffffff"
     bordercolor="#111111"
     borderopacity="1"
     inkscape:pageshadow="0"
     inkscape:pageopacity="0"
     inkscape:pagecheckerboard="1"
     inkscape:document-units="px"
     showgrid="true"
     units="px"
     width="512px"
     inkscape:zoom="1.9776937"
     inkscape:cx="87.728449"
     inkscape:cy="120.59501"
     inkscape:window-width="1920"
     inkscape:window-height="1031"
     inkscape:window-x="0"
     inkscape:window-y="0"
     inkscape:window-maximized="1"
     inkscape:current-layer="layer1"
     inkscape:showpageshadow="false"
     showborder="true"
     inkscape:deskcolor="#d1d1d1" /><defs
     id="defs2"><inkscape:path-effect
       effect="bspline"
       id="path-effect1133"
       is_visible="true"
       lpeversion="1"
       weight="33.333333"
       steps="2"
       helper_size="0"
       apply_no_weight="true"
       apply_with_weight="true"
       only_selected="false" /><inkscape:path-effect
       effect="bspline"
       id="path-effect857"
       is_visible="true"
       lpeversion="1"
       weight="33.333333"
       steps="2"
       helper_size="0"
       apply_no_weight="true"
       apply_with_weight="true"
       only_selected="false" /></defs><g
     inkscape:label="图层 1"
     inkscape:groupmode="layer"
     id="layer1"><path
       style="fill:#e90000;fill-opacity:1;stroke:none;stroke-width:1.3715px;stroke-linecap:butt;stroke-linejoin:miter;stroke-opacity:1"
       d="M 29.464128,4.6147782 C 33.442203,4.1244105 60.451079,2.6841055 69.090313,1.3850514 77.729546,0.08599858 95.130604,-2.6343255 96.043228,6.7968472 97.867407,25.648033 77.796767,62.221655 82.481662,92.725973 c 4.684893,30.504317 12.670475,32.220177 47.759068,33.135667 26.52039,0.69191 20.62575,-7.28197 28.70841,-52.67888 4.09206,-22.983455 3.66121,-22.758182 5.31147,-39.032884 1.45445,-14.343514 -4.43287,-22.385298 -5.45633,-31.1835499 -0.49001,-4.2122278 48.99374,-1.7269816 58.70659,1.6450111 4.2264,1.4672729 -15.60735,126.2184428 -30.82772,163.2875128 -15.97227,38.90031 -53.71345,71.92071 -79.65772,71.43433 -56.785771,-1.06456 -81.556436,3.27582 -83.493515,-2.04511 -0.40478,-42.40218 -4.323612,-43.99474 1.72544,-44.9383 6.049052,-0.94357 20.474802,19.37818 44.606849,16.3117 44.004326,-5.59168 59.383736,-25.11436 58.558266,-33.31674 C 126.03163,151.58821 102.64902,159.35869 72.031413,159.09526 54.730465,158.94641 49.217628,147.60566 41.721652,127.67009 26.601327,87.457564 51.576117,41.800007 40.669562,23.458703 29.464128,4.6147782 29.464128,4.6147782 29.464128,4.6147782 Z"
       id="path302"
       sodipodi:nodetypes="cssssssssssczsssssc" /></g></svg>
